PathFileType	4	(X/Y/Z)	C:/Users/opensim2020/Desktop/walking_exp_matlab/subject02_walking11_straight_01.trc																																																																																																																												
DataRate	CameraRate	NumFrames	NumMarkers	Units	OrigDataRate	OrigDataStartFrame	OrigNumFrames																																																																																																																								
100	100	5	42	mm	100	834	267																																																																																																																								
Frame#	Time	LFHD			RFHD			LBHD			RBHD			C7			T10			CLAV			STRN			RBAK			LSHO			LUPA			LELB			LFRM			LWRA			LWRB			LFIN			RSHO			RUPA			RELB			RFRM			RWRA			RWRB			RFIN			LASI			RASI			LPSI			RPSI			LTHI			LKNE			LTIB			LANK			LHEE			LTOE			RTHI			RKNE			RTIB			RANK			RHEE			RTOE			*39			*40			*41		
		X1	Y1	Z1	X2	Y2	Z2	X3	Y3	Z3	X4	Y4	Z4	X5	Y5	Z5	X6	Y6	Z6	X7	Y7	Z7	X8	Y8	Z8	X9	Y9	Z9	X10	Y10	Z10	X11	Y11	Z11	X12	Y12	Z12	X13	Y13	Z13	X14	Y14	Z14	X15	Y15	Z15	X16	Y16	Z16	X17	Y17	Z17	X18	Y18	Z18	X19	Y19	Z19	X20	Y20	Z20	X21	Y21	Z21	X22	Y22	Z22	X23	Y23	Z23	X24	Y24	Z24	X25	Y25	Z25	X26	Y26	Z26	X27	Y27	Z27	X28	Y28	Z28	X29	Y29	Z29	X30	Y30	Z30	X31	Y31	Z31	X32	Y32	Z32	X33	Y33	Z33	X34	Y34	Z34	X35	Y35	Z35	X36	Y36	Z36	X37	Y37	Z37	X38	Y38	Z38	X39	Y39	Z39	X40	Y40	Z40	X41	Y41	Z41	X42	Y42	Z42
																																																																																																																															
101	1	-477.5694	1749.13586	1381.67554	-465.70853	1726.10706	1523.86218	-576.53033	1636.45618	1373.1167	-576.72498	1608.03345	1513.73022	-598.64197	1511.89624	1431.84888	-659.45966	1241.50793	1432.81567	-461.10568	1444.15881	1423.54321	-414.62469	1268.08655	1428.82141	-662.24139	1341.9342	1489.8811	-516.98248	1492.27893	1253.49634	-486.28497	1298.51843	1162.55396	-443.39236	1162.60266	1143.73682	-371.87955	1049.27393	1144.09802	-270.83426	969.20697	1196.1864	-304.7395	947.13403	1156.63708	-254.69527	904.44147	1159.24109	-524.6449	1472.71021	1619.90784	-570.94391	1285.39636	1699.17529	-570.71649	1139.26514	1717.14392	-545.89813	1021.30103	1738.67908	-498.47806	894.01611	1721.31689	-546.7356	891.03052	1750.22339	-510.01437	828.66632	1755.35449	-443.74826	972.16229	1294.13611	-429.7034	965.96643	1550.41895	-647.82129	1020.76447	1386.13257	-647.58185	1019.21436	1500.56641	-547.54901	662.70209	1264.58228	-607.71643	467.85294	1304.62756	-694.34052	292.16888	1314.19592	-722.52997	71.31117	1361.02942	-759.72443	46.64526	1414.28333	-568.59845	29.74632	1342.87048	-449.75287	670.64856	1639.85095	-374.61307	475.96548	1608.29126	-347.38864	292.97696	1626.1438	-286.22629	105.4276	1606.18457	-292.17343	42.90379	1549.78992	-124.15981	98.49652	1628.29541	-590.78876	1773.88281	1477.4115	2845.7522	1034.22034	-3356.92725	NaN	NaN	NaN
102	1.01	-469.07919	1748.04773	1383.00012	-457.21796	1724.92163	1525.20093	-567.96289	1635.34448	1374.37122	-568.20148	1606.8783	1514.95544	-590.1391	1510.83118	1433.0105	-650.69904	1240.32788	1434.02527	-452.55899	1442.96558	1424.54565	-406.08194	1266.9491	1429.49255	-653.70837	1341.03955	1491.04456	-508.5076	1491.30237	1254.50366	-478.27972	1297.47498	1163.45837	-434.64792	1161.69995	1145.01306	-362.29819	1048.83789	1145.5907	-260.3374	970.15222	1197.60974	-294.25168	947.48944	1158.57117	-243.54419	905.56537	1161.13586	-516.1972	1471.20471	1620.94434	-563.06934	1283.9541	1699.88867	-563.43939	1138.01697	1717.74121	-539.38611	1019.86029	1739.29272	-492.68198	892.40491	1722.1311	-541.12146	889.57831	1750.94873	-504.85196	826.75861	1755.98157	-436.01996	970.82611	1294.11243	-420.99878	964.39716	1550.23669	-639.47845	1019.6615	1387.63269	-638.62695	1018.29803	1502.10632	-541.73248	661.97778	1265.07178	-603.19342	467.63947	1304.97156	-691.9126	292.92172	1314.5343	-722.0556	72.10648	1361.17834	-759.22919	47.27183	1414.21753	-568.49078	29.66086	1342.76514	-441.28809	669.16968	1639.74866	-365.34036	474.81219	1607.44153	-334.92682	292.26193	1625.22107	-270.29355	106.05669	1605.88086	-275.87723	43.70034	1549.93713	-107.77969	101.54585	1626.88574	-582.33105	1772.69385	1478.69861	2845.26587	1034.24695	-3360.3418	NaN	NaN	NaN
103	1.02	-460.35297	1746.97131	1384.48389	-448.67166	1723.79358	1526.54602	-559.30908	1634.26343	1375.70593	-559.64142	1605.69702	1516.26587	-581.47858	1509.72766	1434.20837	-642.21301	1239.32483	1435.29749	-443.95557	1441.85242	1425.63049	-397.47598	1265.77747	1430.25159	-645.14825	1339.92651	1492.10754	-499.98889	1490.31775	1255.60767	-469.94806	1296.37476	1164.63062	-426.25037	1160.60681	1146.15039	-352.87851	1048.41418	1147.34741	-250.1544	970.91479	1199.26904	-284.14307	947.61243	1160.65198	-233.1234	906.39038	1162.96167	-507.61121	1469.77051	1622.16077	-555.13623	1282.55176	1700.71765	-556.04785	1136.66589	1718.4032	-532.72882	1018.34753	1739.98584	-486.90198	890.50879	1722.86499	-535.28687	888.19257	1751.85815	-499.72845	825.01978	1756.85498	-428.03473	969.50958	1294.25122	-411.42639	963.12854	1550.59424	-631.11932	1018.59198	1389.27698	-629.64813	1017.3858	1503.72278	-536.12469	661.58038	1265.47058	-598.41956	467.43884	1305.3114	-689.0882	293.67615	1315.01929	-721.70825	73.03397	1361.26306	-758.78265	48.7007	1414.55151	-568.48254	29.61485	1342.65283	-431.9986	667.88416	1639.85571	-355.67273	473.70538	1606.60315	-323.10437	291.85831	1624.64343	-256.26709	106.41517	1605.17737	-261.24918	43.77561	1549.0979	-93.51035	103.2579	1625.67603	-573.82556	1771.61499	1480.17859	2846.01367	1034.14807	-3357.02661	NaN	NaN	NaN
104	1.03	-451.72296	1746.00183	1385.98401	-440.04776	1722.66785	1528.03394	-550.80841	1633.24231	1377.10181	-550.98419	1604.57678	1517.63916	-572.81042	1508.67749	1435.52405	-633.35815	1238.18811	1436.63525	-435.27402	1440.72693	1426.74182	-388.74585	1264.70679	1431.04822	-636.36664	1338.4696	1492.94739	-491.38895	1489.4397	1256.81287	-461.25742	1295.43787	1165.89343	-417.9957	1159.58484	1147.48511	-343.93781	1047.51672	1149.02576	-240.48929	971.44855	1200.87012	-274.45187	947.52734	1162.72375	-223.00194	906.90692	1164.94727	-499.0488	1468.37354	1623.40784	-547.36133	1281.03735	1701.33984	-548.55591	1135.37573	1719.17285	-526.06677	1016.99725	1740.8855	-480.89639	888.81952	1723.75732	-529.42902	886.7558	1752.60132	-494.22675	823.43256	1757.66565	-419.83801	968.21838	1294.5625	-402.1843	961.78009	1550.82983	-622.55701	1017.51587	1390.92566	-620.54651	1016.50775	1505.31299	-529.96722	660.78552	1265.9823	-593.40906	467.20575	1305.62488	-686.19183	294.51895	1315.29651	-721.19562	74.03291	1361.28687	-758.492	50.1198	1414.60254	-568.60449	29.63429	1342.54712	-421.82162	666.96173	1640.2251	-345.18124	473.0744	1606.27991	-311.54434	291.40488	1623.86926	-244.24011	106.24969	1603.96436	-248.91522	43.50619	1547.2771	-81.34014	103.14371	1624.22876	-565.25983	1770.50671	1481.71729	2845.30249	1034.16638	-3360.24341	NaN	NaN	NaN
105	1.04	-443.11279	1745.02014	1387.59241	-431.40329	1721.60657	1529.62866	-542.16016	1632.203	1378.60852	-542.31171	1603.4552	1519.16333	-564.02716	1507.61169	1436.901	-624.37811	1237.09155	1438.0719	-426.49374	1439.68921	1428.00806	-379.901	1263.64246	1431.92493	-627.57465	1337.34033	1494.24377	-482.74164	1488.58545	1258.08203	-453.50562	1294.37341	1167.39075	-410.01355	1158.54846	1148.89539	-335.16602	1046.90686	1150.68274	-231.248	971.69861	1202.66614	-265.27206	947.31421	1164.7699	-213.51013	907.1123	1166.90125	-490.12866	1467.07227	1624.80847	-539.16968	1279.92065	1702.66943	-540.92932	1134.08398	1720.02441	-519.08588	1015.74103	1741.9198	-474.90897	886.96729	1724.59253	-523.40704	885.41229	1753.54285	-488.58853	821.87256	1758.62573	-411.37366	967.151	1295.12305	-393.03036	960.37231	1551.08582	-613.91632	1016.49109	1392.64148	-611.37329	1015.67206	1506.98682	-523.71826	660.29156	1266.51257	-588.1925	467.02551	1305.93469	-682.89532	295.27817	1315.521	-720.70209	75.17442	1361.11646	-758.16522	51.7177	1414.76111	-568.43207	29.60068	1342.24011	-410.83218	666.25055	1640.89099	-334.30005	472.67166	1606.2323	-300.72113	290.8028	1623.20837	-233.97719	105.63531	1602.41833	-238.9364	43.34614	1545.73584	-71.26707	101.68504	1622.90222	-556.62439	1769.33704	1483.29724	2845.84082	1034.14502	-3357.19702	NaN	NaN	NaN
